Coordinates
version=1
nRows=7
nColumns=46
inDegrees=yes

Units are S.I. units (second, meters, Newtons, ...)
Angles are in degrees.

endheader
time	pelvis_tilt	pelvis_list	pelvis_rotation	pelvis_tx	pelvis_ty	pelvis_tz	bb_angle	bb_tx	bb_ty	bb_tz	hip_flexion_r	hip_adduction_r	hip_rotation_r	knee_angle_r	knee_angle_r_beta	ankle_angle_r	subtalar_angle_r	mtp_angle_r	crank_angle_r	hip_flexion_l	hip_adduction_l	hip_rotation_l	knee_angle_l	knee_angle_l_beta	ankle_angle_l	subtalar_angle_l	mtp_angle_l	crank_angle_l	lumbar_extension	lumbar_bending	lumbar_rotation	arm_flex_r	arm_add_r	arm_rot_r	elbow_flex_r	pro_sup_r	wrist_flex_r	wrist_dev_r	arm_flex_l	arm_add_l	arm_rot_l	elbow_flex_l	pro_sup_l	wrist_flex_l	wrist_dev_l
      7.50000000	    -20.80604345	     -5.35607790	      5.55283959	      0.35674282	      1.13081164	     -0.29063128	      0.00000000	      0.50000000	      0.00000000	      0.25000000	     53.23586058	     -3.80491114	     -2.14004986	     87.46552913	      1.52656147	    -32.17367029	    -18.43939553	      0.00000000	      0.00000000	     55.61399636	      0.82901764	     11.19571829	     58.80694228	      1.02637477	     -3.86382805	    -16.55973636	      0.00000000	      0.00000000	    -65.18746552	      2.41627865	     -5.04556264	     52.72682452	    -17.55815238	     18.67820071	     73.54549503	     49.85050206	      0.00000000	      0.00000000	     49.02120785	    -25.45595103	     23.11953460	     89.46475950	     51.23845421	      0.00000000	      0.00000000
      7.50500000	    -20.72440088	     -5.95576593	      5.45303618	      0.35668287	      1.12967493	     -0.29058112	      0.00000000	      0.50000000	      0.00000000	      0.25000000	     54.58440875	     -3.48295636	     -2.39177393	     89.74386206	      1.56632588	    -31.14014768	    -18.07210192	      0.00000000	      0.00000000	     54.20490624	      0.06943889	     11.47740485	     56.68732275	      0.98938043	     -5.07700255	    -16.41653491	      0.00000000	      0.00000000	    -65.07338260	      3.02552210	     -5.06142241	     53.73338447	    -17.44375285	     20.65746120	     72.73806216	     50.00556910	      0.00000000	      0.00000000	     47.59412842	    -25.70659834	     21.35109261	     90.47724885	     51.26973910	      0.00000000	      0.00000000
      7.51000000	    -20.65318056	     -6.65965577	      5.30717685	      0.35660644	      1.12855236	     -0.29033742	      0.00000000	      0.50000000	      0.00000000	      0.25000000	     55.95334313	     -3.06988216	     -2.77212582	     91.96197899	      1.60503932	    -30.25865837	    -18.14999232	      0.00000000	      0.00000000	     52.83150223	     -0.85541178	     11.78750765	     54.62895574	      0.95345514	     -5.82984452	    -15.94593522	      0.00000000	      0.00000000	    -64.94649923	      3.54159914	     -4.34101861	     53.85190547	    -17.34733741	     20.75349700	     72.75045999	     50.01030072	      0.00000000	      0.00000000	     47.24937155	    -25.74723205	     21.31783664	     90.45826278	     51.26006138	      0.00000000	      0.00000000
      7.51500000	    -20.61967706	     -7.28589650	      5.12981948	      0.35663506	      1.12752778	     -0.29009051	      0.00000000	      0.50000000	      0.00000000	      0.25000000	     57.34821876	     -2.77402382	     -3.13746322	     94.14672849	      1.64317039	    -28.81936520	    -17.99850571	      0.00000000	      0.00000000	     51.44229886	     -1.79690729	     11.90085321	     52.49108749	      0.91614230	     -6.97180056	    -15.55798992	      0.00000000	      0.00000000	    -64.77943050	      3.98149618	     -3.76916347	     53.99780118	    -17.34920297	     20.97188860	     72.77365459	     50.03162337	      0.00000000	      0.00000000	     46.75865393	    -25.68092241	     21.21801244	     90.41943993	     51.24362316	      0.00000000	      0.00000000
      7.52000000	    -20.58736973	     -7.88739147	      4.89405985	      0.35664177	      1.12647313	     -0.28986822	      0.00000000	      0.50000000	      0.00000000	      0.25000000	     58.76523961	     -2.46499740	     -3.43745676	     96.28906085	      1.68056115	    -27.49441335	    -17.83041931	      0.00000000	      0.00000000	     50.01818283	     -2.70131961	     12.09444951	     50.44309093	      0.88039802	     -7.82245584	    -15.36348356	      0.00000000	      0.00000000	    -64.63839398	      4.43018099	     -3.04797110	     54.09767951	    -17.28602229	     21.23665651	     72.79946385	     50.05667136	      0.00000000	      0.00000000	     46.34669691	    -25.66663569	     21.06545976	     90.38985174	     51.22187042	      0.00000000	      0.00000000
      7.52500000	    -20.53972141	     -8.12357597	      4.74924278	      0.35661201	      1.12559352	     -0.29018194	      0.00000000	      0.50000000	      0.00000000	      0.25000000	     60.15280932	     -2.64646407	     -3.44220580	     98.50869018	      1.71930099	    -24.80316511	    -16.00879255	      0.00000000	      0.00000000	     48.46965651	     -3.29145504	     11.75970830	     48.21196661	      0.84145756	     -9.57368712	    -15.99677153	      0.00000000	      0.00000000	    -64.54032035	      4.85736924	     -3.20984757	     54.96185845	    -17.58738192	     23.55505603	     72.36264697	     50.29162901	      0.00000000	      0.00000000	     45.02064240	    -25.41410798	     19.17394321	     90.91218890	     51.16427263	      0.00000000	      0.00000000
      7.53000000	    -20.55495178	     -8.63127528	      4.47107242	      0.35665929	      1.12472797	     -0.28988010	      0.00000000	      0.50000000	      0.00000000	      0.25000000	     61.58226910	     -2.49021116	     -3.81248106	    100.46940185	      1.75352186	    -23.33765788	    -16.01198166	      0.00000000	      0.00000000	     47.07735783	     -4.24096578	     11.57626679	     46.19134772	      0.80619110	    -10.55948559	    -15.53603907	      0.00000000	      0.00000000	    -64.37215448	      5.23137684	     -2.61642074	     55.02913026	    -17.45029143	     23.71010516	     72.38739315	     50.31086031	      0.00000000	      0.00000000	     44.55760729	    -25.40821136	     19.09721118	     90.83577041	     51.14830632	      0.00000000	      0.00000000
